<svg xmlns="http://www.w3.org/2000/svg" viewBox="0 0 399 94" width="399" height="94">
	<path fill="#513FA0" d="M336.198 0.874921C341.017 0.533029 345.078 0.784556 349.278 3.48288Q349.958 3.91899 350.591 4.41995Q351.224 4.92091 351.805 5.48184Q352.386 6.04278 352.908 6.65822Q353.431 7.27366 353.89 7.93762Q354.35 8.60158 354.742 9.3076Q355.133 10.0136 355.454 10.7548Q355.774 11.496 356.02 12.2651Q356.265 13.0343 356.434 13.8239C357.407 18.3433 356.982 23.4529 356.981 28.07L356.964 48.9002L356.972 66.9821C356.973 70.4239 357.162 73.9879 356.811 77.4093C356.512 80.328 355.916 82.8929 354.312 85.3753C351.424 89.8446 347.165 92.2331 342.059 93.3391C338.208 94.0886 334.531 93.0457 331.171 91.1344C327.584 89.0938 324.375 85.5978 323.279 81.5429C321.726 75.797 322.349 68.9715 322.354 63.0365L322.342 43.3926L322.33 27.1162C322.329 23.4838 322.185 19.7807 322.594 16.1671C322.9 13.4576 323.618 11.1961 324.977 8.83271C327.536 4.38379 331.379 2.16966 336.198 0.874921ZM340.547 81.6943C341.894 81.4097 343.205 80.8189 343.977 79.6109C344.104 79.4123 344.185 79.184 344.231 78.954C345.046 77.8965 344.981 75.8275 345.046 74.5372C345.585 63.8937 345.101 52.3515 345.112 41.5985L345.123 27.0908C345.123 24.0798 345.285 20.9147 344.893 17.9251C344.684 16.3351 344.269 14.4288 342.939 13.3986C341.703 12.441 340.345 12.1109 338.823 12.3261C338.731 12.3391 338.64 12.3563 338.549 12.3749C337.107 12.7519 336.053 13.6064 335.301 14.8988C334.71 15.913 334.471 16.8924 334.388 18.0566C334.14 21.5505 334.288 25.1165 334.293 28.6197L334.287 45.9783L334.276 64.9304C334.272 68.9456 333.703 74.2963 334.733 78.1646C335.066 79.4121 336.124 80.5476 337.231 81.1669C338.28 81.7542 339.373 81.9632 340.547 81.6943Z"/>
	<path fill="#513FA0" d="M207.311 1.37449C210.724 0.746687 226.921 0.97354 230.091 1.66167C233.916 2.49212 237.293 4.6039 239.416 7.93398C240.523 9.6687 241.225 11.6101 241.598 13.6282C242.489 18.4463 242.285 31.6838 241.205 36.5358C240.399 40.1569 238.499 44.1346 235.241 46.1497C233.818 47.0296 232.243 47.6531 230.834 48.555C230.33 48.8777 230.041 48.9588 229.907 49.567C230.793 50.4956 232.397 50.9577 233.552 51.5267C236.956 53.2034 239.85 56.162 241.084 59.79C241.678 61.5338 241.775 63.4421 241.881 65.2705C242.077 68.6493 242.402 91.4285 241.636 92.9886C237.887 92.4611 233.763 92.7959 229.988 92.9199C230.054 92.7619 230.1 92.6038 230.135 92.4362C230.498 90.702 230.569 80.5772 229.788 79.3736C230.627 78.0851 230.267 67.2545 230.222 64.9095C230.175 62.419 230.052 59.4867 228.114 57.6504C225.794 55.4513 222.229 55.7277 219.281 55.8055Q219.44 56.0604 219.515 56.3517C220.095 58.7149 219.585 65.7583 219.576 68.733C219.551 76.2981 219.894 83.9991 219.51 91.5478C219.484 92.0618 219.389 92.4594 219.122 92.9039C215.153 92.7217 210.995 92.6087 207.04 93.0109C207.286 92.5478 207.44 91.9985 207.454 91.4747C207.618 85.4316 207.396 79.3295 207.396 73.2789L207.407 33.3431L207.408 12.1651C207.412 8.64482 207.727 4.86346 207.311 1.37449ZM219.295 44.3276C221.764 44.2607 225.536 44.5634 227.501 42.8394L227.609 42.6042C228.864 41.8417 229.35 40.647 229.682 39.2765C230.623 35.399 230.603 23.0827 229.957 18.9559C229.738 17.5552 229.337 16.1004 228.586 14.8854C227.912 13.7939 226.674 13.2497 225.464 12.97C223.686 12.5588 221.289 12.5832 219.483 12.8747C219.806 15.8509 219.958 42.4546 219.295 44.3276Z"/>
	<path fill="#513FA0" d="M167.331 1.12473C175.736 1.92231 185.891 -0.806258 193.655 3.24643C197.061 5.02423 199.6 8.24061 200.741 11.8866C202.338 16.9919 201.984 29.595 200.962 35.0476C200.541 37.2968 199.829 39.5297 198.758 41.5568C196.694 45.4656 192.409 48.2394 188.244 49.5252C190.281 50.11 192.378 50.9823 194.186 52.0948C197.726 54.2734 200.015 57.4124 200.975 61.4599C201.33 62.9574 201.497 64.4792 201.571 66.0147C201.703 68.7436 201.915 91.6436 201.136 92.9029C197.201 92.711 193.145 92.6979 189.216 92.9937C189.398 92.7302 189.541 92.434 189.601 92.1174C189.907 90.4941 189.922 80.171 189.238 79.1271C189.544 78.6566 189.644 78.1894 189.671 77.6369C189.872 73.5669 190.501 60.5208 188.008 57.835C185.707 55.3574 181.456 55.7369 178.394 55.6474C178.486 55.7872 178.573 55.9296 178.648 56.0797C179.122 57.0302 179.274 91.1913 178.689 92.9334C174.737 92.7729 170.713 92.7514 166.763 92.9244C167.735 90.8112 167.129 79.9599 167.143 76.996L167.129 24.4954L167.101 9.37533C167.086 6.89891 166.844 4.20787 167.072 1.75067C167.092 1.52806 167.209 1.30811 167.331 1.12473ZM178.573 44.3075C180.89 44.2766 185.311 44.7666 187.041 42.9773C187.233 42.7785 187.255 42.5402 187.327 42.2774C188.697 41.2835 189.098 39.9805 189.355 38.381C190.03 34.1678 190.428 18.1043 188.142 14.9646C187.854 14.5687 187.414 14.1615 186.989 13.9134C184.671 12.4856 181.562 12.6813 178.931 12.6246L178.977 32.9933C178.985 36.2586 179.203 39.6888 178.981 42.9385C178.945 43.4503 178.869 43.8772 178.573 44.3075Z"/>
	<path fill="#513FA0" d="M282.176 1.12483C285.841 1.34758 289.789 1.31645 293.455 1.09004C294.657 2.50533 303.855 44.0368 304.998 48.9196C305.689 51.8752 306.118 55.0308 307.121 57.8895C307.368 58.5931 307.674 59.6039 308.384 59.9439C308.428 59.8801 308.463 59.8161 308.492 59.7441C308.785 59.0139 306.932 47.1438 306.645 45.0757C305.827 39.2056 304.722 33.2291 304.409 27.3121C304.201 23.3823 305.037 3.09975 304.161 1.32917C308.148 1.10782 312.315 1.58609 316.253 1.03698C316.356 1.31442 316.447 1.61606 316.477 1.91073C316.882 5.88008 316.574 10.2095 316.569 14.2112L316.576 37.5255L316.559 73.6179C316.556 79.3328 316.831 85.1879 316.572 90.8823C316.533 91.7433 316.482 91.965 315.953 92.6254C315.24 93.1349 305.707 92.844 304.05 92.8873C304.258 92.4052 304.227 91.9307 304.146 91.423C303.158 85.1668 301.299 78.8249 299.832 72.6552L291.473 37.005C291.274 36.1261 291.019 34.7052 290.205 34.1919L289.869 34.2901C289.533 35.2542 291.342 45.8501 291.596 47.7081C292.353 53.2445 293.342 58.8052 293.705 64.3843C294.119 70.7506 293.841 77.3011 293.848 83.6859C293.851 86.0938 294.307 90.6908 293.508 92.8093L293.482 92.8762C289.548 92.9179 285.59 92.6082 281.666 92.9652C281.934 92.554 282.052 92.0495 282.078 91.5629C282.218 88.915 282.08 86.1845 282.091 83.528L282.091 64.6473L282.109 18.0391C282.11 14.0944 281.53 4.52534 282.176 1.12483Z"/>
	<path fill="#513FA0" d="M57.1596 17.8261C60.4132 17.2409 64.8972 18.8086 67.6186 20.5278C71.1141 22.7361 74.1052 26.4089 75.0239 30.4929C75.9439 34.5829 75.6639 39.0678 75.6875 43.2434Q75.7805 53.7761 75.5681 64.307C75.5107 69.2904 75.9663 74.7701 75.1517 79.6916C74.7838 81.9147 73.6185 84.2608 72.4213 86.1489C69.7147 90.4174 65.3634 92.2985 60.6124 93.356Q59.7694 93.4563 58.9207 93.4749Q58.0719 93.4936 57.2254 93.4303Q56.3788 93.3671 55.5422 93.2226Q54.7057 93.078 53.887 92.8536Q53.0682 92.6292 52.2749 92.3269Q51.4816 92.0246 50.7211 91.6473Q49.9607 91.2699 49.2401 90.8211Q48.5195 90.3723 47.8455 89.8561C44.1459 87.0505 42.0671 83.2813 41.4512 78.7226C40.6768 72.9908 41.1679 66.833 41.1213 61.0408Q41.0092 51.8147 41.0388 42.5884C41.0659 39.0374 40.9505 35.3203 41.5106 31.808C41.9481 29.065 42.7126 26.9458 44.4021 24.7299C47.6476 20.4733 51.9511 18.5213 57.1596 17.8261ZM54.2659 80.0907C56.0409 81.2529 57.2392 82.0502 59.4315 81.5926Q59.6865 81.5392 59.9402 81.4803C60.8098 81.4157 61.4739 80.6603 62.0131 80.0349C62.7465 79.1844 63.3534 78.2204 63.5214 77.0921C63.8525 74.8681 63.6755 72.4038 63.6673 70.1542L63.6164 58.3147C63.5823 50.8745 64.036 42.0679 63.4827 34.7558C63.3339 32.7882 62.6063 31.523 61.2498 30.136C59.9793 29.7774 58.694 29.491 57.3637 29.5362C55.8444 30.1603 54.2577 31.0253 53.5967 32.6337C52.4655 35.3864 52.7297 70.292 53.043 74.9936C53.1457 76.5349 53.3133 77.9663 53.9305 79.3945Q54.0819 79.7504 54.2659 80.0907Z"/>
	<path fill="#513FA0" d="M378.722 0.624924C381.9 0.080845 385.981 1.19889 388.73 2.76198C392.906 5.13683 395.576 8.90545 396.833 13.5124C397.521 16.0315 398.349 30.4688 397.287 32.3233C393.23 32.2245 389.088 32.1049 385.048 32.5288C385.623 31.3264 385.621 19.6435 385.459 17.5648C385.332 15.9298 384.796 14.4932 383.506 13.4107C382.449 12.5236 381.004 12.1019 379.635 12.2387C378.256 12.3764 376.982 13.0104 376.111 14.0985C374.521 16.0856 374.838 19.3223 374.846 21.7103C374.856 24.9662 374.57 28.4725 375.676 31.5894C376.592 34.1704 379.207 36.9575 381.072 38.9447C387.946 46.2703 396.206 53.8165 397.421 64.378C398.256 71.6337 398.231 81.267 393.511 87.1852C390.736 90.6646 386.181 92.951 381.786 93.4404C379.307 93.7065 376.802 93.3032 374.462 92.471C371.645 91.4692 369.533 89.8894 367.517 87.7033C361.552 81.2346 363.375 73.4978 363.159 65.5097C363.127 64.302 363.201 62.7388 362.666 61.6396L362.635 61.5778C366.549 61.7914 370.745 62.0338 374.632 61.5191C375.825 63.9686 373.788 74.2591 375.445 78.4209C376.007 79.8311 377.029 80.9552 378.438 81.5518C379.531 82.0147 381.55 81.7828 382.649 81.3353C383.39 80.6983 384.633 79.6551 384.815 78.6601C385.866 77.1205 385.5 73.6125 385.494 71.7515C385.483 68.5163 385.648 65.1864 384.567 62.0874C381.258 52.6013 365.469 44.805 363.413 31.5687C362.776 27.4743 362.682 17.3182 363.612 13.4081C364.111 11.3081 365.09 9.28476 366.367 7.54866C369.391 3.43796 373.776 1.37125 378.722 0.624924Z"/>
	<path fill="#513FA0" d="M248.243 1.12483C252.186 1.46554 256.352 1.20371 260.313 1.19509C265.388 1.18404 270.557 1.37532 275.62 1.0463C275.627 1.06315 275.635 1.0798 275.642 1.09686C275.653 1.12523 275.662 1.15424 275.673 1.18254C275.735 1.33893 275.799 1.49152 275.849 1.65254C276.33 3.1967 276.25 11.6085 275.575 12.9213C272.546 12.0629 263.624 12.9685 259.558 12.5537C259.667 12.8017 259.769 13.0575 259.835 13.3209C260.188 14.7214 260.178 37.2222 259.989 40.1797C259.962 40.5944 259.823 40.9535 259.606 41.3058C264.083 41.1426 268.568 41.3172 273.047 41.1228Q273.256 41.4409 273.351 41.8099C273.644 42.9785 273.603 51.9358 273.049 52.897C269.406 52.1494 263.614 52.9046 259.564 52.5747C259.606 52.6608 259.638 52.7487 259.674 52.8374C259.736 52.9902 259.794 53.1421 259.84 53.3003C260.258 54.7248 260.12 75.0975 259.958 77.8581C259.936 78.2263 259.811 78.5565 259.633 78.8762C260.021 79.4456 260.262 80.2398 260.582 80.8671C262.438 81.821 273.011 81.3321 275.584 81.1044C275.68 81.2849 275.766 81.4772 275.831 81.6708C276.321 83.128 276.23 91.7767 275.628 92.9739C269.253 91.905 258.286 94.2704 252.769 91.8793C250.982 91.1049 249.497 89.8389 248.784 87.9852C248.18 86.4143 248.168 84.5891 248.112 82.9265C247.845 75.1149 247.877 1.93925 248.243 1.12483Z"/>
	<path fill="#513FA0" d="M133.183 1.12419C138.499 1.40075 143.904 1.20234 149.229 1.18938C152.921 1.1804 156.893 1.46635 160.547 0.995409C160.556 1.01087 160.565 1.02605 160.572 1.0418C160.585 1.06795 160.596 1.09501 160.609 1.12106C160.632 1.16724 160.659 1.21161 160.682 1.2576C161.329 2.52266 161.215 11.4206 160.706 12.9279C156.843 12.1425 148.956 12.914 144.495 12.7364C144.681 12.9768 144.832 13.2672 144.884 13.5687C145.374 16.4067 144.942 20.8977 144.949 23.8729C144.962 29.1909 145.376 34.7842 144.982 40.0715C144.949 40.5166 144.809 40.9016 144.557 41.2702C149.086 41.2227 153.898 41.5411 158.39 41.0572Q158.522 41.3217 158.586 41.6102C158.938 43.1843 158.864 51.5864 158.075 52.8385C153.567 52.4219 148.981 52.9148 144.45 52.6407C144.616 52.9015 144.77 53.1861 144.855 53.485C145.185 54.6581 145.132 75.1641 144.953 77.8717C144.929 78.2363 144.799 78.5656 144.617 78.8793C145.005 79.4583 145.25 80.237 145.578 80.8675C147.469 81.8539 157.945 81.3055 160.597 81.1237C160.63 81.1799 160.662 81.2362 160.691 81.2947C161.293 82.5183 161.189 91.4454 160.688 92.8965C154.287 92.4326 147.639 93.4519 141.293 92.7143C138.949 92.4417 136.367 91.6561 134.857 89.7197C133.728 88.2724 133.398 86.5543 133.26 84.7674C132.829 79.1636 133.163 73.3654 133.161 67.7366L133.16 34.7237L133.112 12.7223C133.091 8.97495 132.724 4.82571 133.183 1.12419Z"/>
	<path fill="#513FA0" d="M95.3275 1.1056C99.1254 1.32029 102.998 1.19941 106.803 1.1995Q116.901 1.22304 126.997 1.08508C127.134 1.30131 127.213 1.5417 127.277 1.78821C127.611 3.07977 127.607 12.0555 127.113 12.8887C123.741 12.4512 120.117 12.7838 116.7 12.7116C116.806 12.9212 116.866 13.1962 116.913 13.4259C117.41 15.8234 116.964 24.8203 116.962 27.7986C116.955 39.0271 117.317 50.3873 116.906 61.6016C116.885 62.1788 116.814 62.6186 116.49 63.1121C116.499 63.1277 116.508 63.143 116.516 63.1589C116.529 63.1853 116.54 63.2126 116.553 63.2389C116.657 63.4443 116.761 63.6427 116.827 63.8649C117.264 65.3523 117.245 73.4195 116.585 74.5813C112.781 74.2667 108.77 74.5165 104.945 74.5905C105.05 74.4026 105.124 74.1956 105.178 73.9874C105.714 71.914 105.251 61.4799 105.252 58.3853C105.255 43.7106 105.624 28.9317 105.2 14.2672C105.182 13.6437 105.142 13.1646 104.82 12.6149C101.388 12.9474 97.9319 12.6886 94.4799 13.0836C96.0212 10.5756 93.996 3.53858 95.3275 1.1056Z"/>
	<path fill="#513FA0" d="M94.8289 81.3175C98.106 80.9428 101.77 81.2507 105.076 81.2528Q116.064 81.3145 127.052 81.1837C127.161 81.3544 127.257 81.5453 127.308 81.7421C127.602 82.8666 127.555 91.6155 127.062 92.4746L126.998 92.6556C126.343 93.0779 98.4569 92.7101 94.7117 92.9613C94.7187 92.9443 94.7262 92.9275 94.7326 92.9103C95.4868 90.8988 95.4754 83.2525 94.8289 81.3175Z"/>
	<path fill="#513FA0" d="M66.7684 1.21071C66.9585 1.16709 67.1939 1.26833 67.3788 1.32112C68.2174 4.14709 69.2603 7.2597 70.6651 9.8507C66.3726 10.3809 54.343 14.2077 49.8876 15.7788L49.0342 15.8557C47.692 15.223 46.8038 11.4931 46.294 10.1504C48.769 8.55657 51.7001 7.53588 54.4067 6.40394Q60.6013 3.83984 66.7684 1.21071Z"/>
	<path fill="#513FA0" d="M8.77259 3.04666C10.6923 1.18842 15.2329 0.516322 17.8104 0.563655C22.5739 0.651133 26.911 2.4435 30.2137 5.87958C37.1028 13.0467 34.5207 23.392 35.0729 32.3874C31.3487 32.1192 26.9375 31.8809 23.2566 32.5387C23.242 28.0379 24.2966 16.6075 21.2294 13.5677C20.4179 12.7635 19.2097 12.2591 18.0646 12.2829C17.1423 12.3021 16.1414 12.5317 15.2489 12.7498C13.4556 14.4123 12.7228 15.9011 12.6246 18.3449C12.4567 22.5242 11.8642 28.1927 13.5981 32.0133C14.98 35.0585 17.4102 37.5179 19.6334 39.9585C25.4454 46.3387 33.1903 53.3615 34.6327 62.2752C35.2172 65.8871 34.9896 69.7607 34.9647 73.4129C34.9242 79.3548 34.168 84.4961 29.5775 88.7592C26.3455 91.7607 21.5435 93.7155 17.1089 93.5443C12.8452 93.3797 8.18172 91.2338 5.28227 88.1014C2.25798 84.8341 0.912303 80.4955 0.467961 76.1508C0.733154 72.3542 0.931907 66.0327 0.189213 62.4125C2.11704 60.9949 9.96692 61.8866 12.8362 61.4C12.4325 64.6884 12.1147 74.7801 12.7644 77.7745C13.2285 79.9132 14.9997 80.9237 16.7033 82.0033Q16.8318 81.9911 16.96 81.9754C18.8415 81.747 20.7512 81.3618 21.9791 79.7634C23.5541 77.7131 23.271 74.5315 23.2736 72.0905C23.2769 68.9684 23.3732 65.7677 22.4044 62.7599C21.3743 59.562 19.2783 57.0005 17.0612 54.5451C8.92773 45.5374 2.1959 41.2715 0.475413 28.2574C0.614194 25.0303 0.491238 21.7474 0.492687 18.5142C0.78833 15.4234 1.15313 12.1082 2.49033 9.27338C1.80724 8.98995 0.741968 9.11803 0 9.11261L0 8.03019C2.55508 7.16306 2.09432 4.72047 4.4774 3.013C5.86878 2.90553 7.4173 2.65814 8.77259 3.04666Z"/>
	<path fill="#F4F3F8" d="M4.4774 3.013C5.86878 2.90553 7.4173 2.65814 8.77259 3.04666C6.74182 4.90939 5.67908 5.19678 3.93532 7.65886C3.57692 8.1649 3.08254 9.17763 2.49033 9.27338C1.80724 8.98995 0.741968 9.11803 0 9.11261L0 8.03019C2.55508 7.16306 2.09432 4.72047 4.4774 3.013Z"/>
	<path fill="#513FA0" fill-opacity="0.12156863" d="M0 62.4592L0.189213 62.4125C0.931907 66.0327 0.733154 72.3542 0.467961 76.1508L0 76.2377L0 62.4592Z"/>
	<path fill="#513FA0" fill-opacity="0.12156863" d="M0 18.6722L0.492687 18.5142C0.491238 21.7474 0.614194 25.0303 0.475413 28.2574L0 28.2931L0 18.6722Z"/>
</svg>
